<?xml version="1.0" encoding="utf-8"?>
<!-- Generator: Adobe Illustrator 25.0.1, SVG Export Plug-In . SVG Version: 6.00 Build 0)  -->
<svg version="1.1" id="Layer_1" xmlns="http://www.w3.org/2000/svg" xmlns:xlink="http://www.w3.org/1999/xlink" x="0px" y="0px"
	 width="1000px" height="1000px" viewBox="0 0 1000 1000" style="enable-background:new 0 0 1000 1000;" xml:space="preserve">
<style type="text/css">
	.st0{fill:#41719C;}
	.st1{fill:#1F4E79;}
</style>
<g>
	<g>
		<path class="st0" d="M499.9992676,849.5209961l-141.8701172-75.8007812V619.3168945l141.8701172-75.8007812
			l141.8701172,75.8007812v154.4033203L499.9992676,849.5209961z M401.1291504,747.9428711l98.8701172,52.8261719
			l98.8701172-52.8261719V645.0942383l-98.8701172-52.8261719l-98.8701172,52.8261719V747.9428711z"/>
	</g>
	<g>
		<polygon class="st1" points="441.4934998,206.1147156 441.4934998,268.6332703 499.9993286,299.8925476 558.505188,268.6332703 
			558.505188,206.1147156 499.9993286,174.8554535 		"/>
		<path class="st0" d="M499.9992676,324.269043l-80.0058594-42.746582v-88.296875l80.0058594-42.746582l80.0058594,42.746582
			v88.296875L499.9992676,324.269043z M462.9934082,255.7441406l37.0058594,19.7719727l37.0058594-19.7719727v-36.7402344
			l-37.0058594-19.7719727l-37.0058594,19.7719727V255.7441406z"/>
	</g>
	<g>
		<polygon class="st1" points="196.1727753,623.3297729 196.1727753,685.8482666 254.6786346,717.1075439 313.1844788,685.8482666 
			313.1844788,623.3297729 254.6786346,592.0704956 		"/>
		<path class="st0" d="M254.6784668,741.4838867l-80.0058594-42.7470703v-88.296875l80.0058594-42.7451172l80.0058594,42.7451172
			v88.296875L254.6784668,741.4838867z M217.6726074,672.9594727l37.0058594,19.7714844l37.0058594-19.7714844v-36.7402344
			l-37.0058594-19.7724609l-37.0058594,19.7724609V672.9594727z"/>
	</g>
	<g>
		<polygon class="st1" points="803.8272705,623.3297729 803.8272705,685.8482666 745.3214111,717.1075439 686.8155518,685.8482666 
			686.8155518,623.3297729 745.3214111,592.0704956 		"/>
		<path class="st0" d="M745.3215332,741.4838867l-80.0058594-42.7470703v-88.296875l80.0058594-42.7451172l80.0058594,42.7451172
			v88.296875L745.3215332,741.4838867z M708.3156738,672.9594727l37.0058594,19.7714844l37.0058594-19.7714844v-36.7402344
			l-37.0058594-19.7724609l-37.0058594,19.7724609V672.9594727z"/>
	</g>
	<g>
		<g>
			<path class="st0" d="M336.5178223,581.5209961l-141.8701172-75.8007812V351.3164062l141.8701172-75.800293l141.8706055,75.800293
				v154.4038086L336.5178223,581.5209961z M237.6477051,479.9423828l98.8701172,52.8266602l98.8706055-52.8266602V377.0947266
				l-98.8706055-52.8256836l-98.8701172,52.8256836V479.9423828z"/>
		</g>
		<g>
			<path class="st0" d="M663.4807129,581.5209961l-141.8701172-75.8007812V351.3164062l141.8701172-75.800293l141.8701172,75.800293
				v154.4038086L663.4807129,581.5209961z M564.6105957,479.9423828l98.8701172,52.8266602l98.8701172-52.8266602V377.0947266
				l-98.8701172-52.8256836l-98.8701172,52.8256836V479.9423828z"/>
		</g>
	</g>
</g>
</svg>
